<?xml version="1.0" standalone="no"?>
<!DOCTYPE svg PUBLIC "-//W3C//DTD SVG 20010904//EN"
 "http://www.w3.org/TR/2001/REC-SVG-20010904/DTD/svg10.dtd">
<svg version="1.0" xmlns="http://www.w3.org/2000/svg"
 width="700.000000pt" height="700.000000pt" viewBox="0 0 700.000000 700.000000"
 preserveAspectRatio="xMidYMid meet">
<metadata>
Created by potrace 1.14, written by Peter Selinger 2001-2017
</metadata>
<g transform="translate(0.000000,700.000000) scale(0.100000,-0.100000)"
fill="#000000" stroke="none">
<path d="M3299 6996 c-2 -2 -42 -7 -89 -10 -90 -8 -123 -12 -210 -26 -30 -5
-71 -12 -90 -15 -137 -22 -403 -103 -582 -176 -666 -273 -1217 -774 -1561
-1419 -131 -245 -252 -582 -292 -815 -3 -16 -8 -37 -10 -45 -5 -17 -10 -50
-21 -125 -3 -27 -8 -57 -9 -66 -20 -110 -27 -536 -11 -679 5 -41 10 -91 11
-110 2 -19 5 -42 8 -50 3 -8 10 -46 16 -85 13 -87 16 -100 35 -176 9 -33 14
-65 10 -70 -3 -5 -1 -9 4 -9 6 0 13 -15 16 -33 17 -92 109 -342 176 -481 11
-22 17 -43 14 -48 -3 -4 0 -8 6 -8 10 0 35 -48 32 -62 -1 -5 2 -8 7 -8 5 0 13
-10 17 -22 4 -13 17 -40 30 -60 13 -20 25 -43 26 -50 2 -7 6 -15 9 -18 4 -3
44 -61 89 -130 46 -69 96 -141 112 -160 16 -19 32 -40 36 -45 4 -6 31 -38 59
-71 29 -34 49 -65 45 -69 -4 -5 -2 -6 4 -2 5 3 25 -13 44 -36 45 -55 244 -240
345 -320 101 -80 225 -167 329 -230 73 -44 348 -187 360 -187 3 0 29 -11 58
-25 88 -41 344 -121 493 -154 153 -34 377 -66 495 -71 185 -8 527 1 550 15 3
1 34 6 70 9 87 9 285 49 395 81 50 15 97 28 105 30 18 4 158 53 185 65 11 5
65 28 120 51 216 93 402 201 615 358 241 178 531 479 691 717 120 179 150 231
235 404 138 281 246 630 279 899 4 30 9 63 11 75 19 100 25 501 10 656 -4 47
-10 103 -11 125 -2 22 -5 47 -8 55 -3 8 -11 49 -17 90 -16 100 -73 320 -117
449 -224 663 -684 1243 -1286 1621 -378 237 -840 402 -1252 446 -33 3 -73 8
-90 11 -35 6 -491 14 -496 9z m471 -110 c30 -4 71 -8 90 -11 19 -3 51 -7 70
-9 66 -9 115 -17 150 -26 19 -5 46 -11 60 -14 110 -19 320 -83 459 -138 68
-27 316 -144 351 -167 8 -5 51 -31 95 -57 73 -43 264 -174 291 -199 7 -5 31
-26 55 -45 116 -93 277 -250 370 -360 29 -35 64 -76 77 -90 12 -13 22 -28 22
-32 0 -3 6 -13 13 -20 24 -25 117 -158 117 -167 0 -5 4 -11 9 -13 14 -5 119
-186 180 -312 84 -172 154 -356 196 -512 9 -32 18 -66 20 -74 14 -50 54 -258
60 -307 4 -32 8 -71 11 -88 43 -330 7 -805 -86 -1119 -11 -36 -29 -95 -39
-130 -78 -264 -258 -609 -452 -872 -177 -239 -411 -468 -657 -643 -613 -436
-1349 -622 -2107 -530 -44 5 -93 12 -110 15 -650 117 -1181 392 -1635 846
-123 124 -251 277 -243 292 3 6 3 8 -2 4 -8 -8 -75 73 -75 91 0 5 -4 11 -9 13
-30 11 -240 387 -305 548 -10 25 -24 59 -31 75 -12 29 -62 174 -70 205 -46
174 -74 286 -78 312 -26 164 -37 259 -42 348 -4 58 -8 111 -11 118 -2 7 1 10
7 6 8 -4 8 -1 2 12 -16 31 -3 329 22 500 28 199 85 419 155 607 62 168 95 239
105 229 5 -4 5 -2 1 5 -6 11 25 77 95 201 15 26 37 66 50 90 12 23 26 42 31
42 4 0 8 4 8 10 0 5 21 40 47 78 328 472 777 840 1298 1062 220 94 517 177
730 205 28 4 61 9 75 11 14 2 68 7 120 10 52 3 96 7 98 9 5 4 355 -3 412 -9z"/>
<path d="M4507 5584 c-1 -2 -33 -4 -71 -5 -213 -7 -397 -75 -519 -193 -125
-120 -267 -382 -293 -544 -9 -54 -10 -1495 -1 -1770 8 -249 9 -264 32 -357 9
-33 17 -68 20 -78 4 -17 15 -38 65 -127 8 -14 47 -56 85 -95 126 -124 310
-202 525 -222 505 -47 898 110 1123 448 31 48 57 90 57 95 0 5 7 21 15 37 23
44 61 167 75 242 15 77 19 296 7 390 -11 90 -43 147 -92 164 -43 15 -245 19
-460 9 l-120 -5 -12 -35 c-10 -31 -14 -71 -28 -272 -3 -32 -12 -84 -20 -114
-42 -144 -229 -223 -369 -157 -149 71 -210 306 -198 765 3 129 4 348 3 485 -3
462 19 504 279 520 69 4 123 -14 166 -56 58 -57 77 -117 89 -284 16 -238 16
-241 73 -259 164 -54 520 -66 627 -22 27 12 34 22 48 72 24 85 31 145 30 269
0 241 -85 471 -249 676 -56 71 -58 73 -125 134 -155 142 -356 242 -550 274
-63 11 -206 21 -212 15z m128 -59 c84 -9 113 -15 203 -44 427 -137 744 -527
766 -940 1 -34 -1 -64 -6 -67 -5 -3 -4 -12 2 -19 7 -8 10 -18 7 -22 -3 -4 -8
-30 -11 -58 -12 -98 -37 -184 -56 -190 -80 -26 -291 -26 -465 0 -136 20 -145
22 -146 43 0 9 -2 24 -3 32 -2 8 -6 65 -10 125 -16 250 -63 349 -195 408 -58
26 -180 32 -247 12 -120 -36 -164 -107 -179 -290 -3 -38 -7 -293 -8 -565 -2
-529 1 -577 48 -740 8 -30 17 -59 18 -65 9 -32 51 -98 84 -132 95 -99 270
-115 388 -34 49 33 110 121 125 180 6 24 13 98 16 165 2 67 7 140 10 164 l5
42 122 1 c67 1 142 2 167 4 57 3 270 -12 278 -20 4 -3 14 -43 23 -88 14 -63
17 -119 15 -242 -3 -138 -7 -172 -30 -250 -69 -233 -186 -397 -371 -520 -129
-86 -254 -135 -435 -170 -76 -15 -383 -14 -470 1 -303 54 -506 214 -573 454
-35 123 -37 185 -51 1132 -1 92 2 154 7 151 5 -3 5 3 -1 13 -5 11 -8 35 -6 54
13 149 19 458 13 695 -6 241 100 470 281 610 118 91 286 158 430 171 36 4 66
8 68 9 4 3 129 -3 187 -10z"/>
<path d="M3018 5505 c-2 -1 -41 -5 -87 -9 -107 -8 -248 -39 -299 -65 l-40 -20
6 -73 c13 -161 3 -865 -13 -949 -2 -11 -5 -46 -6 -79 -2 -66 2 -62 -101 -75
-95 -11 -340 -5 -356 10 -4 4 -9 34 -16 100 -4 33 -9 71 -11 85 -9 50 -16 182
-31 545 -3 88 -7 174 -9 190 -20 247 -23 256 -60 274 -30 15 -57 16 -360 12
-82 -1 -165 -1 -183 1 -23 3 -38 -2 -50 -15 -16 -18 -17 -59 -17 -521 0 -438
7 -851 21 -1246 2 -63 6 -338 8 -610 5 -523 9 -619 31 -714 18 -76 41 -101 79
-86 38 14 125 13 236 -3 52 -8 136 -15 185 -14 136 0 173 22 184 108 6 55 6
329 1 774 -4 234 1 350 16 364 13 14 168 29 279 26 151 -3 205 -12 206 -34 0
-9 2 -24 4 -34 13 -68 20 -241 30 -703 3 -139 7 -260 9 -270 2 -11 7 -57 12
-104 9 -93 8 -88 18 -111 6 -13 41 -15 289 -13 166 1 295 6 315 12 17 6 32 9
32 6 0 -3 10 0 21 7 21 11 21 14 14 197 -3 103 -8 241 -11 307 -2 66 -6 157
-8 203 -2 56 0 82 8 82 8 0 8 2 0 8 -8 4 -14 69 -18 187 -4 99 -9 225 -11 280
-3 55 -7 163 -10 240 -3 77 -7 194 -10 260 -2 66 -7 185 -10 265 -9 245 -23
603 -30 775 -3 61 -7 173 -10 250 -3 77 -10 144 -15 149 -5 5 -19 10 -32 11
-20 2 -93 10 -170 20 -15 2 -28 2 -30 0z m185 -68 c8 -3 14 -21 14 -44 0 -21
4 -117 7 -213 4 -96 9 -218 11 -270 12 -310 16 -426 20 -515 2 -55 7 -174 10
-265 3 -91 8 -205 10 -255 2 -49 7 -160 10 -245 3 -85 8 -200 10 -255 3 -55 7
-176 10 -270 4 -93 8 -206 10 -250 2 -44 6 -163 10 -265 3 -102 8 -206 10
-233 2 -31 0 -47 -8 -48 -7 0 -21 -3 -32 -5 -11 -3 -78 -4 -150 -3 -243 3
-330 1 -368 -9 -32 -9 -37 -8 -38 6 0 9 -2 26 -4 37 -23 118 -32 313 -36 725
-3 292 -13 434 -34 466 -21 33 -91 44 -240 39 -108 -3 -176 -11 -250 -29 -5
-1 -24 -6 -42 -10 -50 -12 -49 -7 -43 -786 1 -157 -1 -310 -5 -340 -3 -30 -7
-61 -7 -68 -4 -46 -145 -62 -313 -36 -96 15 -236 21 -253 10 -15 -9 -20 32
-27 214 -3 85 -8 170 -9 189 -2 19 -7 96 -11 170 -4 75 -9 154 -10 176 -5 73
-17 388 -20 520 -6 204 -6 1609 -1 1720 l5 100 53 -4 c77 -6 109 -6 243 4 119
8 231 8 245 0 4 -2 8 -25 8 -51 1 -25 4 -49 6 -53 2 -3 7 -49 10 -101 4 -52 9
-120 11 -150 2 -30 7 -102 10 -160 15 -297 20 -374 30 -472 6 -60 15 -137 19
-163 9 -63 183 -77 491 -39 22 3 43 8 47 12 10 10 16 70 24 212 3 69 8 152 9
185 6 95 5 601 0 696 l-5 86 113 16 c61 10 150 20 197 23 47 4 86 7 87 8 4 3
154 -2 166 -7z"/>
<path d="M5916 5487 c3 -10 9 -15 12 -12 3 3 0 11 -7 18 -10 9 -11 8 -5 -6z"/>
</g>
</svg>
