<svg width="68" height="68" viewBox="0 0 68 68" fill="none" xmlns="http://www.w3.org/2000/svg">
<g filter="url(#filter0_d_6_19)">
<path d="M32.856 45.736L32.68 45.956C31.976 46.132 31.052 46.22 29.908 46.22L27.092 46.176C27.004 46.2053 26.8867 46.22 26.74 46.22C26.564 46.22 26.432 46.1907 26.344 46.132C26.2853 46.1027 26.2413 46.0733 26.212 46.044C25.9773 44.46 25.86 42.3773 25.86 39.796C25.86 39.532 25.8453 38.784 25.816 37.552C25.7867 36.32 25.6987 35.1467 25.552 34.032C24.7307 33.8853 23.9973 33.812 23.352 33.812C22.5307 33.812 21.68 33.9 20.8 34.076C20.6827 34.8973 20.624 35.836 20.624 36.892C20.624 37.508 20.6533 38.4613 20.712 39.752C20.7707 41.0427 20.8 41.996 20.8 42.612C20.8 43.844 20.7267 44.9 20.58 45.78C20.5213 45.78 20.492 45.8093 20.492 45.868C20.0813 46.132 19.5387 46.264 18.864 46.264C18.4827 46.264 17.9107 46.2053 17.148 46.088C16.3853 45.9707 15.872 45.912 15.608 45.912C15.2267 45.912 14.86 45.9853 14.508 46.132C14.0093 45.956 13.76 44.2987 13.76 41.16V38.608C13.76 36.584 13.7013 33.5773 13.584 29.588C13.4667 25.5987 13.408 22.5773 13.408 20.524C13.408 19.732 13.4227 18.6613 13.452 17.312C13.4813 15.9333 13.5107 15.244 13.54 15.244V15.288L13.76 15.024C14.0533 15.024 14.332 15.0387 14.596 15.068C14.8893 15.0973 15.1973 15.112 15.52 15.112L16.796 15.068C17.3827 15.0093 17.8227 14.98 18.116 14.98C19.0253 14.98 19.5533 15.112 19.7 15.376C19.8467 16.344 19.9493 17.3853 20.008 18.5C20.0667 19.6147 20.096 20.3187 20.096 20.612C20.1547 23.0467 20.2867 24.8653 20.492 26.068H20.448L20.58 26.772C21.1667 26.8893 21.8413 26.948 22.604 26.948C23.396 26.948 24.2027 26.8747 25.024 26.728C25.2293 24 25.332 21.6387 25.332 19.644C25.332 18.2653 25.288 16.872 25.2 15.464C25.464 15.2 26.08 14.98 27.048 14.804C28.016 14.628 28.8813 14.54 29.644 14.54C30.172 14.54 30.5973 14.5987 30.92 14.716H31.448C31.448 14.716 31.5213 14.7893 31.668 14.936L32.856 45.736ZM30.92 45.692C31.4187 45.692 31.9173 45.648 32.416 45.56L31.228 15.156C31.0227 15.156 30.8467 15.1413 30.7 15.112C28.94 15.112 27.2533 15.2733 25.64 15.596C25.728 16.916 25.772 18.236 25.772 19.556C25.772 21.6387 25.6693 24.088 25.464 26.904C25.3173 27.0507 25.244 27.124 25.244 27.124H25.332C25.0973 27.124 24.5987 27.168 23.836 27.256C23.1027 27.344 22.516 27.388 22.076 27.388C21.3427 27.388 20.712 27.256 20.184 26.992C19.9787 25.672 19.8173 23.7067 19.7 21.096C19.5827 18.632 19.436 16.784 19.26 15.552C19.0547 15.5227 18.7467 15.508 18.336 15.508C17.984 15.508 17.456 15.5373 16.752 15.596C16.048 15.6547 15.5493 15.684 15.256 15.684C14.7573 15.684 14.332 15.6253 13.98 15.508C13.892 17.62 13.848 19.7173 13.848 21.8C13.848 26.1707 13.8773 30.0133 13.936 33.328C14.024 36.6133 14.1853 39.84 14.42 43.008C14.42 43.3893 14.4347 43.6827 14.464 43.888C14.464 44.68 14.4933 45.2667 14.552 45.648C14.8747 45.56 15.1827 45.516 15.476 45.516C15.828 45.516 16.3853 45.5747 17.148 45.692C17.852 45.8093 18.3947 45.868 18.776 45.868C19.304 45.868 19.7587 45.7653 20.14 45.56C20.2867 44.68 20.36 43.5947 20.36 42.304L20.316 39.532C20.2573 38.3 20.228 37.376 20.228 36.76C20.228 35.6747 20.2867 34.7067 20.404 33.856C20.6387 33.7387 21.1227 33.6213 21.856 33.504C22.5893 33.3867 23.3227 33.328 24.056 33.328C24.9653 33.328 25.5813 33.4453 25.904 33.68C25.992 33.768 26.0653 34.208 26.124 35C26.1827 35.792 26.212 36.3933 26.212 36.804C26.212 38.7987 26.2267 40.4707 26.256 41.82C26.3147 43.14 26.432 44.46 26.608 45.78H26.872C27.2533 45.6627 27.7667 45.604 28.412 45.604C28.94 45.604 29.3507 45.6187 29.644 45.648L30.92 45.692ZM42.405 22.724L42.361 22.856L42.317 22.9C42.141 23.4573 42.053 24.2053 42.053 25.144L42.097 26.552C42.1264 26.816 42.141 27.168 42.141 27.608C42.141 28.1067 42.1117 28.884 42.053 29.94C41.9944 31.0547 41.965 31.9053 41.965 32.492C41.965 34.252 42.1704 35.8067 42.581 37.156C43.021 38.476 43.8424 39.136 45.045 39.136C45.5144 39.136 45.9544 39.0333 46.365 38.828C46.7757 38.5933 47.113 38.2707 47.377 37.86C47.553 37.5667 47.6704 37.112 47.729 36.496C47.7877 35.8507 47.817 35.4693 47.817 35.352C47.8464 34.6773 47.8904 34.1787 47.949 33.856C48.0077 33.504 48.1104 33.284 48.257 33.196C48.521 33.284 48.7997 33.328 49.093 33.328C49.3277 33.328 49.6797 33.2987 50.149 33.24C50.5597 33.152 50.941 33.108 51.293 33.108C52.5544 33.108 53.5077 33.2253 54.153 33.46C54.5637 33.9 54.769 34.9853 54.769 36.716C54.769 38.5933 54.3437 40.2947 53.493 41.82C52.6424 43.3453 51.3957 44.5627 49.753 45.472C48.1104 46.352 46.1597 46.792 43.901 46.792C40.7917 46.792 38.4744 45.9853 36.949 44.372C36.3917 43.7853 35.981 43.1253 35.717 42.392C35.4824 41.6293 35.3357 40.9547 35.277 40.368C35.2477 39.752 35.2184 38.7547 35.189 37.376C35.1304 35.6747 35.101 34.3693 35.101 33.46V28.62L35.145 25.496C35.1744 24.8213 35.189 23.7947 35.189 22.416C35.1304 22.2693 35.101 22.0347 35.101 21.712C35.101 21.1253 35.3064 20.3333 35.717 19.336C36.509 17.3707 37.521 15.948 38.753 15.068C40.0144 14.188 41.8184 13.748 44.165 13.748C46.0424 13.748 47.8024 14.2467 49.445 15.244C51.0877 16.2413 52.393 17.576 53.361 19.248C54.3584 20.8907 54.857 22.636 54.857 24.484C54.857 25.5987 54.6957 26.6253 54.373 27.564C54.0797 27.8573 53.2144 28.004 51.777 28.004C49.841 28.004 48.4184 27.784 47.509 27.344C47.421 26.9627 47.3477 26.332 47.289 25.452C47.2597 24.6307 47.1864 23.9707 47.069 23.472C46.981 22.9733 46.7464 22.548 46.365 22.196C46.013 21.844 45.4557 21.668 44.693 21.668C44.517 21.7267 44.2677 21.7707 43.945 21.8C43.6224 21.8293 43.3584 21.8733 43.153 21.932C42.977 21.9907 42.801 22.108 42.625 22.284C42.5077 22.548 42.4344 22.7093 42.405 22.768V22.724ZM42.317 21.976C42.845 21.448 43.5637 21.184 44.473 21.184C45.4117 21.184 46.1157 21.4187 46.585 21.888C47.0837 22.328 47.3917 22.856 47.509 23.472C47.6557 24.088 47.7437 24.8507 47.773 25.76C47.773 25.9067 47.7877 26.1267 47.817 26.42C47.8464 26.7133 47.8757 26.948 47.905 27.124C49.5477 27.4173 50.8384 27.564 51.777 27.564C52.6864 27.564 53.4197 27.476 53.977 27.3C54.2997 26.2733 54.461 25.2907 54.461 24.352C54.461 22.592 53.9624 20.9347 52.965 19.38C51.997 17.8253 50.6917 16.5787 49.049 15.64C47.4064 14.7013 45.617 14.232 43.681 14.232C42.185 14.232 40.821 14.5547 39.589 15.2C38.357 15.816 37.3744 16.7253 36.641 17.928C35.937 19.1307 35.585 20.5533 35.585 22.196C35.673 22.4893 35.717 22.9 35.717 23.428C35.717 24.4253 35.673 25.76 35.585 27.432C35.5264 28.1947 35.497 28.8253 35.497 29.324C35.497 30.5267 35.5264 32.3013 35.585 34.648L35.629 37.332C35.629 37.5667 35.629 38.1973 35.629 39.224C35.6584 40.2507 35.805 41.1747 36.069 41.996C36.333 42.8173 36.729 43.5067 37.257 44.064C38.665 45.5893 40.8504 46.352 43.813 46.352C45.9837 46.352 47.861 45.9413 49.445 45.12C51.029 44.2987 52.2317 43.1693 53.053 41.732C53.9037 40.2653 54.329 38.608 54.329 36.76C54.329 35.7333 54.197 34.7653 53.933 33.856C53.6984 33.768 53.3464 33.724 52.877 33.724C52.437 33.724 52.1144 33.6947 51.909 33.636C51.3517 33.636 50.9264 33.6507 50.633 33.68L49.357 33.724C48.917 33.724 48.5944 33.7093 48.389 33.68C48.301 34.0613 48.257 34.6333 48.257 35.396C48.257 36.3347 48.1837 37.024 48.037 37.464C47.8024 38.1387 47.421 38.6667 46.893 39.048C46.3944 39.4 45.837 39.576 45.221 39.576C43.8717 39.576 42.9184 38.916 42.361 37.596C41.833 36.2467 41.569 34.4133 41.569 32.096C41.569 31.2747 41.613 29.764 41.701 27.564L41.657 25.628C41.657 23.78 41.8624 22.592 42.273 22.064L42.317 21.976Z" fill="white"/>
</g>
<g filter="url(#filter1_d_6_19)">
<circle cx="34" cy="30" r="29.5" stroke="white" shape-rendering="crispEdges"/>
</g>
<defs>
<filter id="filter0_d_6_19" x="9.40802" y="13.748" width="49.449" height="41.044" filterUnits="userSpaceOnUse" color-interpolation-filters="sRGB">
<feFlood flood-opacity="0" result="BackgroundImageFix"/>
<feColorMatrix in="SourceAlpha" type="matrix" values="0 0 0 0 0 0 0 0 0 0 0 0 0 0 0 0 0 0 127 0" result="hardAlpha"/>
<feOffset dy="4"/>
<feGaussianBlur stdDeviation="2"/>
<feComposite in2="hardAlpha" operator="out"/>
<feColorMatrix type="matrix" values="0 0 0 0 0 0 0 0 0 0 0 0 0 0 0 0 0 0 0.25 0"/>
<feBlend mode="normal" in2="BackgroundImageFix" result="effect1_dropShadow_6_19"/>
<feBlend mode="normal" in="SourceGraphic" in2="effect1_dropShadow_6_19" result="shape"/>
</filter>
<filter id="filter1_d_6_19" x="0" y="0" width="68" height="68" filterUnits="userSpaceOnUse" color-interpolation-filters="sRGB">
<feFlood flood-opacity="0" result="BackgroundImageFix"/>
<feColorMatrix in="SourceAlpha" type="matrix" values="0 0 0 0 0 0 0 0 0 0 0 0 0 0 0 0 0 0 127 0" result="hardAlpha"/>
<feOffset dy="4"/>
<feGaussianBlur stdDeviation="2"/>
<feComposite in2="hardAlpha" operator="out"/>
<feColorMatrix type="matrix" values="0 0 0 0 0 0 0 0 0 0 0 0 0 0 0 0 0 0 0.25 0"/>
<feBlend mode="normal" in2="BackgroundImageFix" result="effect1_dropShadow_6_19"/>
<feBlend mode="normal" in="SourceGraphic" in2="effect1_dropShadow_6_19" result="shape"/>
</filter>
</defs>
</svg>
