<svg viewBox="0 0 448 360" height="360" width="448"><g><path xmlns="http://www.w3.org/2000/svg" d="M193.855 44.683c1.378 0 2.494 1.116 2.495 2.494 0 1.378-1.116 2.494-2.495 2.495h-23.846l-17.167 17.167c-0.973 0.973-2.551 0.973-3.53 0-0.973-0.973-0.973-2.551 0-3.529l13.644-13.645h-40.378c-11.518 0-19.151 2.688-23.815 8.113-4.739 5.519-6.66 14.056-6.66 25.63 0 0.069 0 0.137-0.006 0.206l0.212 36.692 14.692-14.692c0.973-0.973 2.551-0.973 3.53 0 0.973 0.973 0.973 2.551 0 3.53l-18.178 18.178c0.206 35.832 0.193 71.358-0.013 107.19 25.486 25.2 50.617 50.312 75.811 75.791h25.38c1.378 0 2.494 1.116 2.495 2.495 0 1.378-1.116 2.494-2.495 2.494h-20.448l25.942 26.241 0.006-0.006c8.188 8.188 15.577 12.859 22.824 13.413 7.146 0.543 14.442-2.956 22.586-11.093l28.555-28.555h-20.722c-1.378 0-2.494-1.116-2.495-2.494 0-1.378 1.116-2.494 2.495-2.495h25.711l16.625-16.625c0.973-0.973 2.551-0.973 3.529 0 0.973 0.973 0.973 2.551 0 3.53l-13.101 13.102h40.377c11.518 0 19.151-2.688 23.815-8.113 4.739-5.519 6.66-14.056 6.66-25.63h0.013l-0.212-36.898-16.014 16.014c-0.973 0.973-2.551 0.973-3.53 0-0.973-0.973-0.973-2.551 0-3.53l19.5-19.5c-0.206-35.832-0.193-71.358 0.013-107.19-25.486-25.2-50.617-50.312-75.811-75.791h-26.147c-1.378 0-2.494-1.116-2.495-2.495 0-1.378 1.116-2.494 2.495-2.494h21.215l-25.824-26.123c-0.044-0.037-0.081-0.075-0.124-0.112-8.188-8.188-15.577-12.859-22.824-13.413-7.146-0.543-14.442 2.956-22.586 11.093l-28.555 28.555h18.858zM122.578 44.683h45.367l32.078-32.078c9.248-9.248 17.81-13.195 26.484-12.534 8.568 0.649 16.956 5.824 25.985 14.854 0.05 0.05 0.094 0.094 0.137 0.143l29.278 29.615h43.508c13.071 0 21.919 3.268 27.594 9.871 5.6 6.517 7.864 16.101 7.864 28.867 0 0.081-0.006 0.156-0.012 0.23l-0.225 39.742 28.43 28.112 0.006-0.006c9.03 9.03 14.206 17.411 14.854 25.985 0.661 8.674-3.293 17.236-12.534 26.484l-30.768 30.768 0.237 41.843h0.012c0 12.765-2.27 22.35-7.864 28.867-5.675 6.604-14.524 9.872-27.594 9.871h-45.366l-32.078 32.078c-9.248 9.248-17.81 13.195-26.484 12.534-8.568-0.649-16.956-5.824-25.985-14.854l0.006-0.006-29.421-29.758h-43.509c-13.071 0-21.919-3.268-27.594-9.872-5.6-6.517-7.864-16.101-7.863-28.866h0.012l0.231-39.972-28.293-27.969c-0.05-0.044-0.1-0.087-0.143-0.137-9.03-9.03-14.206-17.411-14.854-25.985-0.661-8.674 3.293-17.236 12.534-26.484l30.768-30.768-0.237-41.607c-0.006-0.075-0.012-0.156-0.012-0.23 0-12.765 2.27-22.35 7.864-28.867 5.675-6.604 14.524-9.872 27.594-9.871zM87.682 179.997l-0.274-47.724-27.276 27.276c-8.138 8.138-11.636 15.44-11.094 22.587 0.549 7.246 5.226 14.642 13.413 22.823 0.037 0.037 0.081 0.081 0.113 0.125l24.837 24.551 0.281-49.644zM92.303 241.483l-0.2 35.09h0.013c0 11.58 1.921 20.117 6.66 25.63 4.664 5.432 12.297 8.113 23.815 8.113h38.576l-33.55-33.936-35.308-34.903zM325.415 49.672h-38.575l33.549 33.936 35.308 34.902 0.2-34.884c-0.006-0.069-0.006-0.137-0.007-0.205 0-11.58-1.921-20.117-6.66-25.63-4.664-5.432-12.297-8.113-23.815-8.113zM360.599 130.352l-0.281 49.645 0.274 47.724 27.276-27.276c8.138-8.138 11.636-15.44 11.094-22.587-0.549-7.252-5.226-14.642-13.413-22.824l0.006-0.006-24.956-24.669z" fill="#a26769" fill-rule="nonzero" stroke="none" stroke-width="1" stroke-linecap="butt" stroke-linejoin="miter" stroke-miterlimit="10" stroke-dasharray="" stroke-dashoffset="0" font-family="none" font-weight="none" font-size="none" text-anchor="none" style="mix-blend-mode: normal" data-fill-palette-color="tertiary"></path></g><g transform="matrix(1,0,0,1,112,144.84992344264126)"><svg viewBox="0 0 224 70.30015311471749" height="70.30015311471749" width="224"><g><svg viewBox="0 0 224 70.30015311471749" height="70.30015311471749" width="224"><g><svg viewBox="0 0 279.593296841441 87.74755168661588" height="70.30015311471749" width="224"><g transform="matrix(1,0,0,1,55.59329684144103,0)"><svg viewBox="0 0 223.99999999999997 87.74755168661588" height="87.74755168661588" width="223.99999999999997"><g id="textblocktransform"><svg viewBox="0 0 223.99999999999997 87.74755168661588" height="87.74755168661588" width="223.99999999999997" id="textblock"><g><svg viewBox="0 0 223.99999999999997 87.74755168661588" height="87.74755168661588" width="223.99999999999997"><g transform="matrix(1,0,0,1,0,0)"><svg width="223.99999999999997" viewBox="4.050000190734863 -32 91.88999938964844 36" height="87.74755168661588" data-palette-color="#461467"><path d="M13.25-4L15.75-4Q15.95-3.2 15.95-2L15.95-2Q15.95-0.85 15.75 0L15.75 0 11.75 0Q11.55-0.85 11.55-2L11.55-2Q11.55-3.2 11.75-4L11.75-4 9.25-4Q9.05-4.85 9.05-6L9.05-6Q9.05-7.2 9.25-8L9.25-8 6.75-8Q6.55-8.85 6.55-10L6.55-10Q6.55-11.2 6.75-12L6.75-12 4.25-12Q4.05-12.85 4.05-14L4.05-14Q4.05-15.2 4.25-16L4.25-16 6.75-16Q6.55-16.85 6.55-18L6.55-18Q6.55-19.2 6.75-20L6.75-20 9.25-20Q9.05-20.85 9.05-22L9.05-22Q9.05-23.2 9.25-24L9.25-24 11.75-24Q11.55-24.85 11.55-26L11.55-26Q11.55-27.2 11.75-28L11.75-28 15.75-28Q15.95-27.2 15.95-26L15.95-26Q15.95-24.85 15.75-24L15.75-24 13.25-24Q13.45-23.2 13.45-22L13.45-22Q13.45-20.85 13.25-20L13.25-20 10.75-20Q10.95-19.2 10.95-18L10.95-18Q10.95-16.85 10.75-16L10.75-16 8.25-16Q8.45-15.2 8.45-14L8.45-14Q8.45-12.85 8.25-12L8.25-12 10.75-12Q10.95-11.2 10.95-10L10.95-10Q10.95-8.85 10.75-8L10.75-8 13.25-8Q13.45-7.2 13.45-6L13.45-6Q13.45-4.85 13.25-4L13.25-4ZM38-24Q38.2-23.2 38.2-22L38.2-22Q38.2-20.85 38-20L38-20Q38.2-19.2 38.2-18L38.2-18Q38.2-16.85 38-16L38-16Q38.2-15.2 38.2-14L38.2-14Q38.2-12.85 38-12L38-12Q38.2-11.2 38.2-10L38.2-10Q38.2-8.85 38-8L38-8Q38.2-7.2 38.2-6L38.2-6Q38.2-4.85 38-4L38-4Q38.2-3.2 38.2-2L38.2-2Q38.2-0.85 38 0L38 0 34 0Q33.8-0.85 33.8-2L33.8-2Q33.8-3.2 34-4L34-4Q33.8-4.85 33.8-6L33.8-6Q33.8-7.2 34-8L34-8Q33.8-8.85 33.8-10L33.8-10Q33.8-11.2 34-12L34-12 26-12Q26.2-11.2 26.2-10L26.2-10Q26.2-8.85 26-8L26-8Q26.2-7.2 26.2-6L26.2-6Q26.2-4.85 26-4L26-4Q26.2-3.2 26.2-2L26.2-2Q26.2-0.85 26 0L26 0 22 0Q21.8-0.85 21.8-2L21.8-2Q21.8-3.2 22-4L22-4Q21.8-4.85 21.8-6L21.8-6Q21.8-7.2 22-8L22-8Q21.8-8.85 21.8-10L21.8-10Q21.8-11.2 22-12L22-12Q21.8-12.85 21.8-14L21.8-14Q21.8-15.2 22-16L22-16Q21.8-16.85 21.8-18L21.8-18Q21.8-19.2 22-20L22-20Q21.8-20.85 21.8-22L21.8-22Q21.8-23.2 22-24L22-24Q21.8-24.85 21.8-26L21.8-26Q21.8-27.2 22-28L22-28 26-28Q26.2-27.2 26.2-26L26.2-26Q26.2-24.85 26-24L26-24Q26.2-23.2 26.2-22L26.2-22Q26.2-20.85 26-20L26-20Q26.2-19.2 26.2-18L26.2-18Q26.2-16.85 26-16L26-16 34-16Q33.8-16.85 33.8-18L33.8-18Q33.8-19.2 34-20L34-20Q33.8-20.85 33.8-22L33.8-22Q33.8-23.2 34-24L34-24Q33.8-24.85 33.8-26L33.8-26Q33.8-27.2 34-28L34-28 38-28Q38.2-27.2 38.2-26L38.2-26Q38.2-24.85 38-24L38-24ZM54-8L58-8Q58.2-7.2 58.2-6L58.2-6Q58.2-4.85 58-4L58-4 56-4Q56.2-3.2 56.2-2L56.2-2Q56.2-0.85 56 0L56 0 46 0Q45.8-0.85 45.8-2L45.8-2Q45.8-3.2 46-4L46-4 44-4Q43.8-4.85 43.8-6L43.8-6Q43.8-7.2 44-8L44-8 42-8Q41.8-8.85 41.8-10L41.8-10Q41.8-11.2 42-12L42-12Q41.8-12.85 41.8-14L41.8-14Q41.8-15.2 42-16L42-16Q41.8-16.85 41.8-18L41.8-18Q41.8-19.2 42-20L42-20 44-20Q43.8-20.85 43.8-22L43.8-22Q43.8-23.2 44-24L44-24 46-24Q45.8-24.85 45.8-26L45.8-26Q45.8-27.2 46-28L46-28 56-28Q56.2-27.2 56.2-26L56.2-26Q56.2-24.85 56-24L56-24 58-24Q58.2-23.2 58.2-22L58.2-22Q58.2-20.85 58-20L58-20 54-20Q53.8-20.85 53.8-22L53.8-22Q53.8-23.2 54-24L54-24 48-24Q48.2-23.2 48.2-22L48.2-22Q48.2-20.85 48-20L48-20 46-20Q46.2-19.2 46.2-18L46.2-18Q46.2-16.85 46-16L46-16Q46.2-15.2 46.2-14L46.2-14Q46.2-12.85 46-12L46-12Q46.2-11.2 46.2-10L46.2-10Q46.2-8.85 46-8L46-8 48-8Q48.2-7.2 48.2-6L48.2-6Q48.2-4.85 48-4L48-4 54-4Q53.8-4.85 53.8-6L53.8-6Q53.8-7.2 54-8L54-8ZM78.19-30Q78.19-28.85 77.99-28L77.99-28 76.49-28Q76.69-27.2 76.69-26L76.69-26Q76.69-24.85 76.49-24L76.49-24 74.99-24Q75.19-23.2 75.19-22L75.19-22Q75.19-20.85 74.99-20L74.99-20 73.49-20Q73.69-19.2 73.69-18L73.69-18Q73.69-16.85 73.49-16L73.49-16 71.99-16Q72.19-15.2 72.19-14L72.19-14Q72.19-12.85 71.99-12L71.99-12 70.49-12Q70.69-11.2 70.69-10L70.69-10Q70.69-8.85 70.49-8L70.49-8 68.99-8Q69.19-7.2 69.19-6L69.19-6Q69.19-4.85 68.99-4L68.99-4 67.49-4Q67.69-3.2 67.69-2L67.69-2Q67.69-0.85 67.49 0L67.49 0 65.99 0Q66.19 0.8 66.19 2L66.19 2Q66.19 3.15 65.99 4L65.99 4 61.99 4Q61.79 3.15 61.79 2L61.79 2Q61.79 0.8 61.99 0L61.99 0 63.49 0Q63.29-0.85 63.29-2L63.29-2Q63.29-3.2 63.49-4L63.49-4 64.99-4Q64.79-4.85 64.79-6L64.79-6Q64.79-7.2 64.99-8L64.99-8 66.49-8Q66.29-8.85 66.29-10L66.29-10Q66.29-11.2 66.49-12L66.49-12 67.99-12Q67.79-12.85 67.79-14L67.79-14Q67.79-15.2 67.99-16L67.99-16 69.49-16Q69.29-16.85 69.29-18L69.29-18Q69.29-19.2 69.49-20L69.49-20 70.99-20Q70.79-20.85 70.79-22L70.79-22Q70.79-23.2 70.99-24L70.99-24 72.49-24Q72.29-24.85 72.29-26L72.29-26Q72.29-27.2 72.49-28L72.49-28 73.99-28Q73.79-28.85 73.79-30L73.79-30Q73.79-31.2 73.99-32L73.99-32 77.99-32Q78.19-31.2 78.19-30L78.19-30ZM95.94-14Q95.94-12.85 95.74-12L95.74-12 93.24-12Q93.44-11.2 93.44-10L93.44-10Q93.44-8.85 93.24-8L93.24-8 90.74-8Q90.94-7.2 90.94-6L90.94-6Q90.94-4.85 90.74-4L90.74-4 88.24-4Q88.44-3.2 88.44-2L88.44-2Q88.44-0.85 88.24 0L88.24 0 84.24 0Q84.04-0.85 84.04-2L84.04-2Q84.04-3.2 84.24-4L84.24-4 86.74-4Q86.54-4.85 86.54-6L86.54-6Q86.54-7.2 86.74-8L86.74-8 89.24-8Q89.04-8.85 89.04-10L89.04-10Q89.04-11.2 89.24-12L89.24-12 91.74-12Q91.54-12.85 91.54-14L91.54-14Q91.54-15.2 91.74-16L91.74-16 89.24-16Q89.04-16.85 89.04-18L89.04-18Q89.04-19.2 89.24-20L89.24-20 86.74-20Q86.54-20.85 86.54-22L86.54-22Q86.54-23.2 86.74-24L86.74-24 84.24-24Q84.04-24.85 84.04-26L84.04-26Q84.04-27.2 84.24-28L84.24-28 88.24-28Q88.44-27.2 88.44-26L88.44-26Q88.44-24.85 88.24-24L88.24-24 90.74-24Q90.94-23.2 90.94-22L90.94-22Q90.94-20.85 90.74-20L90.74-20 93.24-20Q93.44-19.2 93.44-18L93.44-18Q93.44-16.85 93.24-16L93.24-16 95.74-16Q95.94-15.2 95.94-14L95.94-14Z" opacity="1" transform="matrix(1,0,0,1,0,0)" fill="#461467" class="wordmark-text-0" data-fill-palette-color="primary" id="text-0"></path></svg></g></svg></g></svg></g></svg></g><g transform="matrix(1,0,0,1,0,10.525318824809567)"><svg viewBox="0 0 34.8782058294715 66.69691403699674" height="66.69691403699674" width="34.8782058294715"><g><svg xmlns="http://www.w3.org/2000/svg" xml:space="preserve" viewBox="0.47099995613098145 0.45285940170288086 99.20099639892578 189.70013427734375" x="0" y="0" height="66.69691403699674" width="34.8782058294715" class="icon-icon-0" data-fill-palette-color="accent" id="icon-0"><path d="M86.282 190.153H16.625L9.417 87.497h84.067zM99.672 80.529c0 1.391-1.275 2.529-2.835 2.529H3.305c-1.559 0-2.834-1.025-2.834-2.279s1.217-2.66 2.705-3.126l4.59-1.436c1.488-0.466 2.705-2.122 2.705-3.681v-2.018a2.84 2.84 0 0 1 2.834-2.834h73.532a2.84 2.84 0 0 1 2.835 2.834v2.018c0 1.559 1.233 3.159 2.741 3.555l4.518 1.188c1.507 0.397 2.741 1.86 2.741 3.25M22.271 1.46c-5.315 6.353-9.067 15.971-5.484 24.001 3.123 7 11.552 10.077 10.042 18.829-0.713 4.136-3.417 6.776-5.027 10.389-1.561 3.502 3.608 6.557 5.181 3.028 1.346-3.02 3.511-5.597 4.751-8.759 2.017-5.14 1.634-10.656-0.916-15.5-1.525-2.899-4.317-4.827-6.53-7.134-2.699-2.813-3.277-6.867-2.611-10.547 0.636-3.52 2.777-7.603 4.836-10.065 2.465-2.946-1.756-7.214-4.242-4.242M45.399 1.46c-5.314 6.353-9.066 15.971-5.484 24.001 3.122 7 11.55 10.077 10.041 18.829-0.713 4.136-3.417 6.776-5.026 10.389-1.56 3.502 3.609 6.557 5.181 3.028 1.346-3.02 3.51-5.598 4.75-8.759 2.016-5.14 1.634-10.656-0.915-15.5-1.525-2.899-4.316-4.827-6.529-7.134-2.699-2.813-3.276-6.867-2.611-10.547 0.636-3.52 2.777-7.603 4.836-10.065 2.463-2.946-1.758-7.214-4.243-4.242M68.31 1.46c-5.315 6.353-9.067 15.971-5.484 24.001 3.122 7 11.552 10.077 10.042 18.829-0.713 4.136-3.417 6.776-5.027 10.389-1.561 3.502 3.608 6.557 5.182 3.028 1.346-3.02 3.511-5.597 4.751-8.759 2.017-5.14 1.634-10.656-0.915-15.5-1.526-2.899-4.317-4.827-6.531-7.134-2.699-2.813-3.276-6.867-2.611-10.547 0.637-3.521 2.777-7.603 4.837-10.065 2.463-2.945-1.759-7.213-4.244-4.242" fill="#461467" data-fill-palette-color="accent"></path></svg></g></svg></g></svg></g></svg></g></svg></g></svg>